<svg xmlns="http://www.w3.org/2000/svg" viewBox="0 0 64 64" width="64" height="64">
  <defs>
    <filter id="neon-glow" x="-50%" y="-50%" width="200%" height="200%">
      <feGaussianBlur in="SourceGraphic" stdDeviation="2.5" result="blur1"/>
      <feGaussianBlur in="SourceGraphic" stdDeviation="1" result="blur2"/>
      <feMerge>
        <feMergeNode in="blur1"/>
        <feMergeNode in="blur2"/>
        <feMergeNode in="SourceGraphic"/>
      </feMerge>
    </filter>
    
    <path id="letter-b" d="M16.5 12.5 H34.8 C43.6 12.5 48.9 16.5 48.9 23.1 C48.9 28.2 45.6 31.8 39.7 33.1 C46.5 34.6 50.5 38.8 50.5 44.7 C50.5 52.5 44.2 57.5 34.2 57.5 H16.5 V12.5 Z M29.2 23.8 V31.6 H33.7 C36.8 31.6 38.5 30.1 38.5 27.6 C38.5 25.2 36.8 23.8 33.7 23.8 H29.2 Z M29.2 41.1 V49.6 H34.3 C38.1 49.6 40.1 47.9 40.1 45.2 C40.1 42.7 38.1 41.1 34.3 41.1 H29.2 Z" />
  </defs>

  <rect width="64" height="64" rx="14" fill="#0F0F0F" />

  <g transform="translate(32, 32) scale(0.8) translate(-32, -32)">
      
      <use href="#letter-b" fill="white" opacity="0.25" transform="translate(-5, -3)"/>

      <use href="#letter-b" fill="#00F3FF" filter="url(#neon-glow)" transform="translate(3, 3)"/>
      
  </g>
</svg>
