<svg width="222" height="78" viewBox="0 0 222 78" fill="none" xmlns="http://www.w3.org/2000/svg">
<g clip-path="url(#clip0_1981_177)">
<path d="M125 34V19.4H132.3V15.3H113V19.4H120.3V34H125Z" fill="#041366"/>
<path d="M134.8 34L136.5 30.2H146.5L148.2 34H153.2L144.5 15.3H138.4L129.7 34H134.8ZM141.5 18.9L145.1 27.1L137 29.1L141.5 18.9Z" fill="#041366"/>
<path d="M159.8 26.6H170V34H174.7V15.3H170V22.4H159.8V15.3H155.1V34H159.8V26.6Z" fill="#041366"/>
<path d="M216.5 34H221.5L212.8 15.3H206.7L198.1 34L191.4 23.2L197.8 15.3H192.8L183 27.7V15.3H178.3V34H182.5L188.4 26.8L192.7 34H198H203L204.7 30.2H214.7L216.5 34ZM205.3 29.1L209.8 18.9L213.4 27.1L205.3 29.1Z" fill="#041366"/>
<path d="M66.8002 27.9999C67.0002 28.5999 67.3002 29.1999 67.6002 29.7999C68.5002 31.2999 69.8002 32.3999 71.4002 33.1999C73.1002 33.9999 75.0002 34.3999 77.2002 34.3999C79.4002 34.3999 81.3002 33.9999 83.0002 33.1999C84.7002 32.3999 86.0002 31.1999 86.9002 29.7999C87.8002 28.2999 88.3002 26.5999 88.3002 24.6999C88.3002 22.7999 87.8002 20.9999 86.9002 19.5999C86.0002 17.9999 84.7002 16.8999 83.0002 16.0999C81.3002 15.2999 79.4002 14.8999 77.2002 14.8999C75.0002 14.8999 73.1002 15.2999 71.4002 16.0999C69.7002 16.8999 68.5002 18.0999 67.6002 19.4999C66.7002 20.9999 66.2002 22.6999 66.2002 24.5999C66.2002 25.6999 66.3002 26.6999 66.6002 27.5999C66.7002 27.6999 66.7002 27.8999 66.8002 27.9999ZM71.8002 21.6999C72.3002 20.8999 73.0002 20.1999 74.0002 19.7999C74.9002 19.3999 76.0002 19.0999 77.3002 19.0999C78.6002 19.0999 79.7002 19.2999 80.7002 19.7999C81.6002 20.1999 82.3002 20.8999 82.8002 21.6999C83.3002 22.4999 83.6002 23.4999 83.6002 24.6999C83.6002 25.8999 83.3002 26.7999 82.8002 27.6999C82.3002 28.4999 81.6002 29.1999 80.7002 29.5999C79.8002 29.9999 78.6002 30.2999 77.3002 30.2999C76.0002 30.2999 74.9002 30.0999 74.0002 29.5999C73.2002 29.1999 72.6002 28.6999 72.1002 28.0999C72.0002 27.9999 71.9002 27.7999 71.8002 27.6999C71.5002 27.1999 71.3002 26.6999 71.2002 26.0999C71.0002 25.5999 71.0002 25.0999 71.0002 24.5999C71.0002 23.4999 71.2002 22.4999 71.8002 21.6999Z" fill="#041366"/>
<path d="M95.7996 26.7H106V34H110.7V15.3H106V22.5H95.7996V15.3H91.0996V34H95.7996V26.7Z" fill="#041366"/>
<path fill-rule="evenodd" clip-rule="evenodd" d="M59.1 31C60.2 30.1 61.1 29.1 61.9 27.9C63.3 25.7 64 23.2 64 20.3C64 17.4 63.3 14.9 61.9 12.8C60.5 10.7 58.6 9 56.1 7.8C53.6 6.6 50.6 6 47.2 6H35.6V0H28.4V5.9H16.8C13.4 5.9 10.5 6.5 7.9 7.7C5.4 8.9 3.4 10.6 2 12.7C0.7 14.9 0 17.4 0 20.3C0 23.2 0.7 25.7 2.1 27.9C3.5 30 5.5 31.7 8 33C10.5 34.2 13.5 34.8 16.9 34.8H20.2H28.5V44.5C30.3333 43 33.1672 41.7213 35.6 41.2V34.8H47.2C48.9 34.7 50.4 34.6 51.9 34.3C54.5 33.78 57.2667 32.5 59.1 31ZM17.1 28.9C15.1 28.9 13.4 28.6 11.9 27.9C10.4 27.2 9.3 26.2 8.5 24.9C7.7 23.6 7.3 22.1 7.3 20.3C7.3 18.5 7.7 17.1 8.5 15.8C9.3 14.5 10.4 13.6 11.9 12.9C13.4 12.2 15.1 11.8 17.1 11.8H28.4V14.2V29L35.6 26.9V11.9H46.9C48.9 11.9 50.7 12.3 52.1 13C53.6 13.7 54.7 14.7 55.5 15.9C56.3 17.2 56.7 18.7 56.7 20.4C56.7 22.1 56.3 23.7 55.5 25C54.7 26.3 53.6 27.3 52.1 28C50.6 28.7 48.9 29 46.9 29H35.6H28.4H17.1V28.9Z" fill="#041366"/>
<path fill-rule="evenodd" clip-rule="evenodd" d="M79.5 42.5C77 41.3 74 40.7 70.6 40.7H59.1V31C57.2667 32.5 54.5 33.78 51.9 34.3V40.7H40.3C38.6 40.7 37 40.9 35.6 41.2C33.1672 41.7213 30.3333 43 28.5 44.5C27.4 45.4 26.4 46.4 25.7 47.6C24.3 49.7 23.6 52.2 23.6 55.1C23.6 58 24.3 60.5 25.7 62.7C27.1 64.8 29.1 66.5 31.6 67.8C34.1 69 37.1 69.6 40.5 69.6H52.1V77.7H59.3V69.6H70.9C74.3 69.6 77.3 69 79.8 67.8C82.3 66.6 84.2 64.9 85.6 62.7C87 60.5 87.7 58 87.7 55.1C87.7 52.2 87 49.7 85.6 47.6C84 45.4 82 43.7 79.5 42.5ZM79 59.6C78.2 60.9 77.1 61.9 75.6 62.6C74.1 63.3 72.4 63.6 70.4 63.6H59.1H51.9H40.6C38.6 63.6 36.9 63.3 35.4 62.6C33.9 61.9 32.8 60.9 32 59.6C31.2 58.3 30.8 56.8 30.8 55C30.8 53.3 31.2 51.8 32 50.5C32.8 49.2 33.9 48.3 35.4 47.6C36.9 46.9 38.6 46.5 40.6 46.5H51.9V63.6L59.1 61.4V46.4H70.4C72.4 46.4 74.2 46.8 75.6 47.5C77.1 48.2 78.2 49.2 79 50.4C79.8 51.7 80.2 53.2 80.2 54.9C80.2 56.8 79.8 58.3 79 59.6Z" fill="#FF8200"/>
<path d="M96.9998 60.2999L117.8 62V56.7999L96.9998 58.5999L95.1998 47H118.9V41.7H88.2998L91.0998 59.4L88.2998 77.0999H119.2V71.6999H95.1998L96.9998 60.2999Z" fill="#FF8200"/>
<path d="M133.9 48.0999C135.9 47.0999 138.4 46.4999 141.1 46.4999C143.5 46.4999 145.6 46.8999 147.4 47.5999C149.2 48.2999 150.7 49.3999 151.8 50.6999C153 52.0999 153.7 53.6999 154.1 55.5999H160.4C160.1 52.6999 159.1 50.0999 157.3 47.8999C155.6 45.6999 153.4 43.9999 150.6 42.6999C147.8 41.4999 144.7 40.8999 141.1 40.8999C137.1 40.8999 133.6 41.6999 130.7 43.1999C127.7 44.6999 125.4 46.8999 123.7 49.6999C122 52.3999 121.2 55.5999 121.2 59.2999C121.2 62.9999 122 66.1999 123.7 68.8999C125.4 71.5999 127.7 73.7999 130.7 75.2999C133.7 76.7999 137.2 77.5999 141.1 77.5999C144.7 77.5999 147.8 76.9999 150.6 75.7999C153.4 74.5999 155.6 72.8999 157.3 70.5999C159 68.3999 160.1 65.7999 160.4 62.8999H154.1C153.8 64.7999 153 66.3999 151.8 67.7999C150.7 69.1999 149.2 70.1999 147.4 70.8999C145.6 71.5999 143.5 71.9999 141.1 71.9999C138.3 71.9999 135.9 71.4999 133.9 70.3999C131.9 69.3999 130.3 67.8999 129.2 65.9999C128.1 64.0999 127.5 61.7999 127.5 59.1999C127.5 56.5999 128.1 54.2999 129.2 52.3999C130.3 50.6999 131.9 49.1999 133.9 48.0999Z" fill="#FF8200"/>
<path d="M159.2 47.0999H173.9V77.0999H180.1V47.0999H194.8V41.7H159.2V47.0999Z" fill="#FF8200"/>
</g>
<defs>
<clipPath id="clip0_1981_177">
<rect width="222" height="78" fill="white"/>
</clipPath>
</defs>
</svg>
